<svg width="216" height="57" viewBox="0 0 216 57" fill="none" xmlns="http://www.w3.org/2000/svg">
<path d="M22.0869 17.3288C25.6479 17.8732 28.3495 19.0098 30.1918 20.7361C32.0315 22.4574 32.9539 24.6323 32.9539 27.2583C32.9539 30.3909 31.6131 32.8683 28.9317 34.6878C26.2502 36.5099 22.2834 37.4197 17.0364 37.4197H0V35.7765C1.60535 35.6556 2.70163 35.391 3.28632 34.9802C3.871 34.5719 4.16334 33.8562 4.16334 32.833V5.81663C4.16334 4.83628 3.88612 4.08023 3.33672 3.54847C2.79236 3.01923 1.75657 2.69665 0.231857 2.58072V0.937561C2.93349 1.05349 5.44863 1.08373 7.78232 1.02829C10.1135 0.967803 12.1195 0.937561 13.8005 0.937561C16.8575 0.937561 19.3751 1.19462 21.351 1.7037C23.3268 2.20773 24.8616 2.88314 25.9579 3.72992C27.0592 4.57166 27.8354 5.50161 28.2865 6.52228C28.7351 7.53791 28.9619 8.57371 28.9619 9.62714C28.9619 11.2753 28.4503 12.727 27.4296 13.982C26.414 15.232 24.6322 16.3485 22.0869 17.3288ZM11.0989 2.81258V17.853C13.9618 17.4246 16.1947 16.8752 17.8026 16.2099C19.4079 15.5445 20.5445 14.6851 21.2098 13.6292C21.8752 12.5682 22.2078 11.2753 22.2078 9.74811C22.2078 7.67148 21.6383 5.988 20.5042 4.69767C19.3676 3.4023 17.4497 2.75209 14.7481 2.75209C13.8056 2.75209 13.0797 2.75209 12.5707 2.75209C12.0591 2.75209 11.5676 2.77225 11.0989 2.81258ZM16.8046 35.4842C19.8943 35.4842 22.1726 34.7785 23.6393 33.3672C25.1111 31.9559 25.847 29.9978 25.847 27.4902C25.847 24.9448 25.1111 22.8682 23.6393 21.2603C22.1726 19.6549 20.0506 18.851 17.2683 18.851L11.0989 19.849V32.7826C11.0989 33.7982 11.2929 34.5038 11.6836 34.8995C12.0792 35.2901 12.984 35.4842 14.3953 35.4842H16.8046Z" fill="white"/>
<path d="M65.678 31.0788C66.0661 32.0542 66.4366 32.8732 66.7869 33.5385C67.1422 34.2039 67.6639 34.7155 68.3494 35.0708C69.0349 35.4211 70.0631 35.6555 71.4341 35.7765V37.4196C66.1039 37.2256 60.7586 37.2256 55.3957 37.4196V35.7765C57.3513 35.6227 58.5333 35.2901 58.9441 34.7785C59.3599 34.2694 59.3523 33.4251 58.9239 32.2482L56.4541 25.4941H44.1153L41.7665 32.4801C41.3759 33.5839 41.6884 34.3702 42.704 34.839C43.7247 35.3102 45.194 35.6227 47.1093 35.7765V37.4196C44.9571 37.339 42.6763 37.2987 40.2645 37.2987C37.8577 37.2987 35.577 37.339 33.4197 37.4196V35.7765C35.3804 35.6227 36.8018 35.222 37.6838 34.5769C38.5634 33.9266 39.2388 32.9337 39.71 31.603L50.4057 0.645142H54.4581L65.678 31.0788ZM44.7605 23.5586H55.7485L49.9924 7.81254L44.7605 23.5586Z" fill="white"/>
<path d="M96.3404 28.4882C97.9457 30.7614 99.5309 32.5557 101.098 33.8713C102.663 35.1818 104.113 35.895 105.443 36.0084L104.213 37.8935C102.686 37.8935 101.149 37.707 99.5964 37.339C98.049 36.9635 96.5243 36.2276 95.0198 35.1314C93.5127 34.0376 92.0359 32.4675 90.5843 30.4237L85.2415 22.8531C85.2012 22.8531 85.1306 22.8631 85.0298 22.8833C84.934 22.8984 84.8483 22.9035 84.7677 22.9035L83.2959 23.1454V32.833C83.2959 33.8562 83.5882 34.5719 84.1729 34.9802C84.7626 35.3909 85.8413 35.6556 87.4088 35.7765V37.4197C82.3534 37.2256 77.2827 37.2256 72.197 37.4197V35.7765C73.8024 35.6556 74.8987 35.3909 75.4833 34.9802C76.068 34.5719 76.3604 33.8562 76.3604 32.833V5.46381C76.3604 4.59686 76.0831 3.92902 75.5337 3.45774C74.9894 2.98899 73.9536 2.69665 72.4289 2.58072V0.937561C75.1305 1.05349 77.7817 1.08373 80.3826 1.02829C82.9884 0.967803 85.1356 0.937561 86.8242 0.937561C90.9774 0.937561 94.178 1.38867 96.4311 2.28838C98.6816 3.1906 100.247 4.37509 101.129 5.84687C102.008 7.31362 102.449 8.90637 102.449 10.6251C102.449 13.1 101.595 15.2572 99.8888 17.097C98.1876 18.9317 95.3575 20.4186 91.4008 21.5526L96.3404 28.4882ZM83.2959 2.75209V21.1494L84.7677 20.968C87.55 20.6202 89.7224 19.975 91.2899 19.0325C92.8549 18.0924 93.9714 16.9256 94.6367 15.5344C95.302 14.1433 95.6347 12.6085 95.6347 10.9276C95.6347 8.57623 95.0147 6.62813 93.7798 5.08074C92.55 3.52831 90.5641 2.75209 87.8221 2.75209H83.2959Z" fill="white"/>
<path d="M144.75 2.58072C143.182 2.69665 142.084 2.96127 141.454 3.3771C140.829 3.78789 140.516 4.5011 140.516 5.51421V33.3672C140.516 34.1132 140.829 34.6727 141.454 35.0406C142.084 35.4111 143.182 35.6556 144.75 35.7765V37.4197C142.242 37.3391 140.017 37.2987 138.077 37.2987C136.141 37.2987 134.291 37.3391 132.532 37.4197V35.7765C132.88 35.5422 133.142 35.1793 133.318 34.6878C133.492 34.1989 133.581 33.5235 133.581 32.6616V30.958C132.996 32.0542 132.192 33.1505 131.171 34.2443C130.156 35.3405 128.893 36.2403 127.381 36.9459C125.874 37.6516 124.047 38.0044 121.897 38.0044C118.288 38.0044 115.435 36.9308 113.338 34.7785C111.247 32.6213 110.203 29.8037 110.203 26.3208V5.51421C110.203 4.5011 109.886 3.78789 109.256 3.3771C108.631 2.96127 107.514 2.69665 105.909 2.58072V0.937561C111.083 1.13413 116.234 1.13413 121.363 0.937561V2.58072C119.795 2.69665 118.701 2.96127 118.076 3.3771C117.451 3.78789 117.139 4.5011 117.139 5.51421V26.3208C117.139 29.1787 117.734 31.4393 118.923 33.1051C120.118 34.7659 121.831 35.5951 124.064 35.5951C125.67 35.5951 127.089 35.2171 128.318 34.456C129.553 33.6898 130.612 32.7296 131.494 31.5729C132.381 30.4186 133.076 29.272 133.581 28.1354V5.51421C133.581 4.5011 133.268 3.78789 132.643 3.3771C132.018 2.96127 130.902 2.69665 129.296 2.58072V0.937561C134.463 1.13413 139.614 1.13413 144.75 0.937561V2.58072Z" fill="white"/>
<path d="M175.935 27.5506H178.344C177.913 29.2718 177.15 30.9553 176.056 32.601C174.96 34.2492 173.45 35.6025 171.53 36.6635C169.614 37.717 167.187 38.2462 164.251 38.2462C160.723 38.2462 157.618 37.4145 154.937 35.7462C152.255 34.0803 150.159 31.7895 148.647 28.8711C147.139 25.9553 146.388 22.6362 146.388 18.9114C146.388 15.2294 147.119 11.9708 148.586 9.13307C150.058 6.29031 152.094 4.05995 154.695 2.43947C157.301 0.813958 160.31 -6.10352e-05 163.717 -6.10352e-05C165.088 -6.10352e-05 166.212 0.108307 167.094 0.322522C167.974 0.539258 168.823 0.753473 169.645 0.967688C170.471 1.18442 171.452 1.29027 172.588 1.29027C172.984 1.29027 173.347 1.27011 173.677 1.22979C174.012 1.18946 174.453 1.11386 174.998 0.997931C175.272 2.67889 175.585 4.34221 175.935 5.98789C176.29 7.63609 176.842 9.33973 177.588 11.0988H174.413C173.236 8.31654 171.767 6.12398 170.008 4.5161C168.246 2.91075 166.091 2.10681 163.546 2.10681C161.663 2.10681 159.987 2.60833 158.516 3.60884C157.049 4.61187 155.884 6.21723 155.018 8.42742C154.156 10.6401 153.727 13.5459 153.727 17.1473C153.727 20.7561 154.186 23.9719 155.108 26.7945C156.028 29.6121 157.389 31.8323 159.191 33.4579C160.998 35.0783 163.193 35.8873 165.774 35.8873C167.891 35.8873 169.869 35.2422 171.711 33.9518C173.551 32.6615 174.96 30.5294 175.935 27.5506Z" fill="white"/>
<path d="M216 2.58072C214.432 2.69665 213.339 2.96127 212.714 3.3771C212.089 3.78789 211.776 4.5011 211.776 5.51421V32.833C211.776 33.8562 212.089 34.5719 212.714 34.9802C213.339 35.391 214.432 35.6556 216 35.7765V37.4197C210.871 37.2256 205.723 37.2256 200.556 37.4197V35.7765C202.162 35.6556 203.278 35.391 203.903 34.9802C204.528 34.5719 204.841 33.8562 204.841 32.833V20.1514H190.919V32.833C190.919 33.8562 191.232 34.5719 191.857 34.9802C192.482 35.391 193.575 35.6556 195.143 35.7765V37.4197C190.014 37.2256 184.866 37.2256 179.699 37.4197V35.7765C181.305 35.6556 182.421 35.391 183.046 34.9802C183.671 34.5719 183.984 33.8562 183.984 32.833V5.51421C183.984 4.5011 183.671 3.78789 183.046 3.3771C182.421 2.96127 181.305 2.69665 179.699 2.58072V0.937561C184.866 1.13413 190.014 1.13413 195.143 0.937561V2.58072C193.575 2.69665 192.482 2.96127 191.857 3.3771C191.232 3.78789 190.919 4.5011 190.919 5.51421V18.1454H204.841V5.51421C204.841 4.5011 204.528 3.78789 203.903 3.3771C203.278 2.96127 202.162 2.69665 200.556 2.58072V0.937561C205.723 1.13413 210.871 1.13413 216 0.937561V2.58072Z" fill="white"/>
<path d="M20.6455 56.3071V45.2183H25.1718C26.2605 45.2183 27.1073 45.5157 27.7121 46.1054C28.322 46.6977 28.6294 47.4714 28.6294 48.424C28.6294 49.2582 28.3825 49.9613 27.8935 50.5309C27.4097 51.0954 26.7771 51.4684 25.9984 51.6498L28.9016 56.3071H27.7524L24.9701 51.7103H21.6435V56.3071H20.6455ZM21.6435 50.8635H25.1012C25.8472 50.8635 26.452 50.6493 26.9157 50.2184C27.3794 49.7824 27.6113 49.1851 27.6113 48.424C27.6113 47.7133 27.392 47.1437 26.956 46.7204C26.5175 46.2919 25.9001 46.0752 25.1012 46.0752H21.6435V50.8635Z" fill="white"/>
<path d="M45.4903 45.2183V46.0953H39.3007V50.2688H44.9056V51.1155H39.3007V55.4402H45.5205V56.3071H38.3027V45.2183H45.4903Z" fill="white"/>
<path d="M54.0566 56.3071L58.5123 45.2183H59.6212L64.0668 56.3071H63.0083L61.6978 53.0309H56.4357L55.1252 56.3071H54.0566ZM56.7684 52.174H61.3652L59.0668 46.2163L56.7684 52.174Z" fill="white"/>
<path d="M73.1106 56.3071V45.2183H74.1086V55.4503H79.6832V56.3071H73.1106Z" fill="white"/>
<path d="M107.617 45.2183V46.0953H101.428V50.2688H107.033V51.1155H101.428V55.4402H107.648V56.3071H100.43V45.2183H107.617Z" fill="white"/>
<path d="M120.952 56.418C120.024 56.418 119.253 56.2642 118.643 55.9543C118.031 55.6392 117.567 55.2335 117.252 54.7345C116.942 54.2305 116.768 53.6911 116.728 53.1115H117.726C117.779 53.8045 118.084 54.3867 118.643 54.8555C119.2 55.3267 119.979 55.5611 120.982 55.5611C121.68 55.5611 122.255 55.4553 122.706 55.2385C123.154 55.0243 123.487 54.7395 123.704 54.3817C123.918 54.0263 124.026 53.6433 124.026 53.2325C124.026 52.8444 123.956 52.5268 123.815 52.2849C123.673 52.0429 123.492 51.8564 123.27 51.7204C123.048 51.5792 122.822 51.4784 122.595 51.4179C122.365 51.3524 122.166 51.307 122 51.2869L119.591 50.9341C118.757 50.8207 118.109 50.5359 117.645 50.0772C117.186 49.6135 116.96 48.9986 116.96 48.2324C116.96 47.6225 117.116 47.0832 117.433 46.6195C117.756 46.1508 118.202 45.7828 118.774 45.5207C119.351 45.2586 120.037 45.1276 120.831 45.1276C121.63 45.1276 122.302 45.2536 122.847 45.5006C123.391 45.75 123.809 46.0852 124.107 46.5086C124.409 46.927 124.576 47.4008 124.611 47.93H123.683C123.595 47.3201 123.295 46.8388 122.786 46.4885C122.282 46.1331 121.619 45.9542 120.8 45.9542C119.933 45.9542 119.233 46.1634 118.704 46.5792C118.179 46.9975 117.917 47.5318 117.917 48.182C117.917 48.5651 117.99 48.8751 118.139 49.1094C118.285 49.3463 118.467 49.5303 118.683 49.6639C118.898 49.8 119.117 49.8932 119.339 49.9461C119.56 49.994 119.744 50.0268 119.893 50.047L122.141 50.3695C122.597 50.43 123.041 50.556 123.472 50.7425C123.9 50.924 124.258 51.2113 124.54 51.5994C124.828 51.9825 124.974 52.5016 124.974 53.1518C124.974 53.7037 124.828 54.2305 124.54 54.7345C124.258 55.2335 123.82 55.6392 123.23 55.9543C122.645 56.2642 121.884 56.418 120.952 56.418Z" fill="white"/>
<path d="M138.07 56.3071V46.0752H133.746V45.2183H143.393V46.0752H139.068V56.3071H138.07Z" fill="white"/>
<path d="M151.498 56.3071L155.953 45.2183H157.062L161.508 56.3071H160.449L159.139 53.0309H153.877L152.566 56.3071H151.498ZM154.21 52.174H158.806L156.508 46.2163L154.21 52.174Z" fill="white"/>
<path d="M173.939 56.3071V46.0752H169.614V45.2183H179.262V46.0752H174.937V56.3071H173.939Z" fill="white"/>
<path d="M195.824 45.2183V46.0953H189.635V50.2688H195.24V51.1155H189.635V55.4402H195.855V56.3071H188.637V45.2183H195.824Z" fill="white"/>
</svg>
