<svg width="14" height="14" viewBox="0 0 14 14" fill="none" xmlns="http://www.w3.org/2000/svg">
<path d="M6.99998 0.333313C3.31998 0.333313 0.333313 3.31998 0.333313 6.99998C0.333313 10.68 3.31998 13.6666 6.99998 13.6666C10.68 13.6666 13.6666 10.68 13.6666 6.99998C13.6666 3.31998 10.68 0.333313 6.99998 0.333313ZM5.19331 9.85998L2.79998 7.46665C2.73826 7.40492 2.6893 7.33165 2.65589 7.25101C2.62249 7.17037 2.6053 7.08393 2.6053 6.99665C2.6053 6.90936 2.62249 6.82293 2.65589 6.74228C2.6893 6.66164 2.73826 6.58837 2.79998 6.52665C2.8617 6.46492 2.93497 6.41597 3.01562 6.38256C3.09626 6.34916 3.18269 6.33197 3.26998 6.33197C3.35727 6.33197 3.4437 6.34916 3.52434 6.38256C3.60498 6.41597 3.67826 6.46492 3.73998 6.52665L5.66665 8.44665L10.2533 3.85998C10.378 3.73533 10.547 3.6653 10.7233 3.6653C10.8996 3.6653 11.0687 3.73533 11.1933 3.85998C11.318 3.98463 11.388 4.1537 11.388 4.32998C11.388 4.50626 11.318 4.67533 11.1933 4.79998L6.13331 9.85998C6.07164 9.92178 5.99838 9.97081 5.91773 10.0043C5.83708 10.0377 5.75062 10.0549 5.66331 10.0549C5.576 10.0549 5.48955 10.0377 5.4089 10.0043C5.32825 9.97081 5.25499 9.92178 5.19331 9.85998Z" fill="#203644"/>
</svg>
